<?xml version="1.0" standalone="no"?>
<!DOCTYPE svg PUBLIC "-//W3C//DTD SVG 20010904//EN"
 "http://www.w3.org/TR/2001/REC-SVG-20010904/DTD/svg10.dtd">
<svg version="1.0" xmlns="http://www.w3.org/2000/svg"
 width="225.000000pt" height="225.000000pt" viewBox="0 0 225.000000 225.000000"
 preserveAspectRatio="xMidYMid meet">

<g transform="translate(0.000000,225.000000) scale(0.100000,-0.100000)"
fill="#000000" stroke="none">
<path d="M1670 1668 c-109 -56 -113 -189 -7 -241 43 -22 44 -25 17 -77 -14
-28 -16 -40 -7 -43 7 -4 6 -6 -4 -6 -15 -1 -79 -116 -79 -142 0 -9 -23 -10
-82 -6 -46 4 -162 10 -258 13 -166 7 -177 6 -217 -14 -39 -20 -78 -60 -68 -70
9 -10 492 -42 723 -48 l242 -7 0 -55 c0 -48 4 -58 34 -88 30 -30 41 -34 84
-34 132 0 198 140 106 226 -41 39 -67 43 -159 27 -38 -7 -89 -13 -112 -13 -38
0 -42 -3 -46 -27 -4 -28 -4 -28 -6 -2 -1 21 -8 27 -48 36 -90 22 -188 53 -149
47 43 -6 56 4 56 47 0 54 32 130 95 224 54 80 65 104 65 138 0 54 -31 104 -75
123 -45 19 -53 18 -105 -8z m115 -53 c40 -39 26 -128 -24 -155 -57 -30 -131
18 -131 85 0 81 100 126 155 70z m-155 -525 c0 -11 -7 -20 -15 -20 -8 0 -15 9
-15 20 0 11 7 20 15 20 8 0 15 -9 15 -20z m481 -30 c28 -15 51 -65 43 -95 -8
-32 -59 -75 -89 -75 -61 0 -113 60 -99 115 13 53 92 83 145 55z"/>
<path d="M1490 917 c-43 -108 -46 -112 -77 -115 -21 -2 -33 -9 -33 -18 0 -12
16 -14 86 -12 l85 3 50 119 c27 66 48 120 46 121 -1 1 -27 5 -57 8 l-55 6 -45
-112z"/>
<path d="M120 998 c0 -2 15 -52 33 -113 l33 -110 41 -3 41 -3 17 65 c10 37 21
66 24 66 3 0 15 -29 25 -66 l19 -65 41 3 40 3 30 103 c16 56 33 99 37 95 4 -5
19 -52 34 -106 l28 -98 41 3 40 3 19 64 c10 35 22 60 26 55 4 -5 15 -35 25
-66 17 -58 17 -58 56 -58 28 0 40 5 44 18 64 223 57 218 101 70 l26 -88 39 0
39 0 17 60 c9 33 20 63 24 65 4 3 16 -24 26 -60 l19 -65 40 0 40 0 29 98 c16
53 31 105 34 115 4 16 -1 18 -34 15 -39 -3 -39 -3 -53 -65 -8 -35 -17 -63 -20
-63 -4 0 -15 29 -25 66 l-19 65 -35 -3 c-35 -3 -37 -5 -55 -68 -21 -71 -27
-68 -47 18 l-12 52 -74 0 -73 0 -11 -42 c-26 -100 -25 -99 -49 -25 -22 64 -24
67 -55 67 -31 0 -34 -3 -51 -60 -17 -56 -35 -87 -35 -60 0 7 -7 36 -16 66
l-15 54 -73 0 -73 0 -13 -57 c-7 -32 -15 -62 -18 -67 -3 -6 -15 19 -27 55 -21
62 -23 64 -55 64 -32 0 -34 -2 -55 -64 -12 -36 -24 -61 -27 -55 -3 5 -11 35
-18 67 l-13 57 -39 0 c-21 0 -38 -1 -38 -2z"/>
<path d="M1260 831 c-17 -34 4 -63 43 -59 29 3 32 6 32 38 0 32 -3 35 -32 38
-24 2 -34 -2 -43 -17z"/>
</g>
</svg>
